<svg width="38" height="44" viewBox="0 0 38 44" fill="none" xmlns="http://www.w3.org/2000/svg">
<path d="M16.5684 9.60107C16.207 10.1187 15.7017 10.5068 15.0522 10.7656C14.4077 11.0195 13.6558 11.1465 12.7964 11.1465C11.9272 11.1465 11.1558 10.9438 10.4819 10.5386C9.80811 10.1284 9.28564 9.54736 8.91455 8.79541C8.54834 8.04346 8.36035 7.17188 8.35059 6.18066V5.25049C8.35059 3.64404 8.72412 2.39893 9.47119 1.51514C10.2231 0.631348 11.2778 0.189453 12.6353 0.189453C13.7485 0.189453 14.6445 0.475098 15.3232 1.04639C16.002 1.61279 16.417 2.41846 16.5684 3.46338H15.1621C14.8984 2.05225 14.0586 1.34668 12.6426 1.34668C11.7002 1.34668 10.9849 1.67871 10.4966 2.34277C10.0132 3.00195 9.76904 3.95898 9.76416 5.21387V6.08545C9.76416 7.28174 10.0376 8.23389 10.5845 8.94189C11.1313 9.64502 11.8711 9.99658 12.8037 9.99658C13.3311 9.99658 13.7925 9.93799 14.188 9.8208C14.5835 9.70361 14.9106 9.50586 15.1694 9.22754V6.83252H12.7012V5.68994H16.5684V9.60107ZM21.9956 11.1465C20.9214 11.1465 20.0474 10.7949 19.3735 10.0918C18.6997 9.38379 18.3628 8.43896 18.3628 7.25732V7.0083C18.3628 6.22217 18.5117 5.52148 18.8096 4.90625C19.1123 4.28613 19.5322 3.80273 20.0693 3.45605C20.6113 3.10449 21.1973 2.92871 21.8271 2.92871C22.8574 2.92871 23.6582 3.26807 24.2295 3.94678C24.8008 4.62549 25.0864 5.59717 25.0864 6.86182V7.42578H19.7178C19.7373 8.20703 19.9644 8.83936 20.3989 9.32275C20.8384 9.80127 21.395 10.0405 22.0688 10.0405C22.5474 10.0405 22.9526 9.94287 23.2847 9.74756C23.6167 9.55225 23.9072 9.29346 24.1562 8.97119L24.9839 9.61572C24.3198 10.6362 23.3237 11.1465 21.9956 11.1465ZM21.8271 4.04199C21.2803 4.04199 20.8213 4.24219 20.4502 4.64258C20.0791 5.03809 19.8496 5.59473 19.7617 6.3125H23.7314V6.20996C23.6924 5.52148 23.5068 4.98926 23.1748 4.61328C22.8428 4.23242 22.3936 4.04199 21.8271 4.04199ZM28.4995 1.15625V3.0752H29.979V4.12256H28.4995V9.03711C28.4995 9.35449 28.5654 9.59375 28.6973 9.75488C28.8291 9.91113 29.0537 9.98926 29.3711 9.98926C29.5273 9.98926 29.7422 9.95996 30.0156 9.90137V11C29.6592 11.0977 29.3125 11.1465 28.9756 11.1465C28.3701 11.1465 27.9136 10.9634 27.606 10.5972C27.2983 10.231 27.1445 9.71094 27.1445 9.03711V4.12256H25.7017V3.0752H27.1445V1.15625H28.4995ZM2.06738 23.1035V27H0.754883V17.0469H4.42578C5.51497 17.0469 6.36719 17.3249 6.98242 17.8809C7.60221 18.4368 7.91211 19.1729 7.91211 20.0889C7.91211 21.055 7.60905 21.8001 7.00293 22.3242C6.40137 22.8438 5.53776 23.1035 4.41211 23.1035H2.06738ZM2.06738 22.0303H4.42578C5.1276 22.0303 5.66536 21.8662 6.03906 21.5381C6.41276 21.2054 6.59961 20.7269 6.59961 20.1025C6.59961 19.5101 6.41276 19.0361 6.03906 18.6807C5.66536 18.3252 5.15267 18.1406 4.50098 18.127H2.06738V22.0303ZM10.6533 20.499C11.2139 19.8109 11.943 19.4668 12.8408 19.4668C14.404 19.4668 15.1924 20.3486 15.2061 22.1123V27H13.9414V22.1055C13.9368 21.5723 13.8138 21.1781 13.5723 20.9229C13.3353 20.6676 12.9639 20.54 12.458 20.54C12.0479 20.54 11.6878 20.6494 11.3779 20.8682C11.068 21.0869 10.8265 21.374 10.6533 21.7295V27H9.38867V16.5H10.6533V20.499ZM21.666 27C21.5931 26.8542 21.5339 26.5944 21.4883 26.2207C20.9004 26.8314 20.1986 27.1367 19.3828 27.1367C18.6536 27.1367 18.0544 26.9316 17.585 26.5215C17.1201 26.1068 16.8877 25.5827 16.8877 24.9492C16.8877 24.179 17.1794 23.582 17.7627 23.1582C18.3506 22.7298 19.1755 22.5156 20.2373 22.5156H21.4678V21.9346C21.4678 21.4925 21.3356 21.1416 21.0713 20.8818C20.807 20.6175 20.4173 20.4854 19.9023 20.4854C19.4512 20.4854 19.0729 20.5993 18.7676 20.8271C18.4622 21.055 18.3096 21.3307 18.3096 21.6543H17.0381C17.0381 21.2852 17.168 20.9297 17.4277 20.5879C17.6921 20.2415 18.0475 19.9681 18.4941 19.7676C18.9453 19.5671 19.4398 19.4668 19.9775 19.4668C20.8298 19.4668 21.4974 19.681 21.9805 20.1094C22.4635 20.5332 22.7142 21.1188 22.7324 21.8662V25.2705C22.7324 25.9495 22.819 26.4896 22.9922 26.8906V27H21.666ZM19.5674 26.0361C19.9639 26.0361 20.3398 25.9336 20.6953 25.7285C21.0508 25.5234 21.3083 25.2568 21.4678 24.9287V23.4111H20.4766C18.9271 23.4111 18.1523 23.8646 18.1523 24.7715C18.1523 25.168 18.2845 25.4779 18.5488 25.7012C18.8132 25.9245 19.1527 26.0361 19.5674 26.0361ZM29.0215 25.0381C29.0215 24.6963 28.8916 24.432 28.6318 24.2451C28.3766 24.0537 27.9277 23.8896 27.2852 23.7529C26.6471 23.6162 26.139 23.4521 25.7607 23.2607C25.387 23.0693 25.109 22.8415 24.9268 22.5771C24.749 22.3128 24.6602 21.9984 24.6602 21.6338C24.6602 21.0277 24.9154 20.515 25.4258 20.0957C25.9408 19.6764 26.597 19.4668 27.3945 19.4668C28.2331 19.4668 28.9121 19.6833 29.4316 20.1162C29.9557 20.5492 30.2178 21.1029 30.2178 21.7773H28.9463C28.9463 21.431 28.7982 21.1325 28.502 20.8818C28.2103 20.6312 27.8411 20.5059 27.3945 20.5059C26.9342 20.5059 26.5742 20.6061 26.3145 20.8066C26.0547 21.0072 25.9248 21.2692 25.9248 21.5928C25.9248 21.8981 26.0456 22.1283 26.2871 22.2832C26.5286 22.4382 26.9639 22.5863 27.5928 22.7275C28.2262 22.8688 28.7389 23.0374 29.1309 23.2334C29.5228 23.4294 29.8122 23.6663 29.999 23.9443C30.1904 24.2178 30.2861 24.5527 30.2861 24.9492C30.2861 25.61 30.0218 26.141 29.4932 26.542C28.9645 26.9385 28.2786 27.1367 27.4355 27.1367C26.8431 27.1367 26.319 27.0319 25.8633 26.8223C25.4076 26.6126 25.0498 26.321 24.79 25.9473C24.5348 25.569 24.4072 25.1611 24.4072 24.7236H25.6719C25.6947 25.1475 25.8633 25.4847 26.1777 25.7354C26.4967 25.9814 26.916 26.1045 27.4355 26.1045C27.9141 26.1045 28.2969 26.0088 28.584 25.8174C28.8757 25.6214 29.0215 25.3617 29.0215 25.0381ZM35.0029 27.1367C34.0003 27.1367 33.1846 26.8086 32.5557 26.1523C31.9268 25.4915 31.6123 24.6097 31.6123 23.5068V23.2744C31.6123 22.5407 31.7513 21.8867 32.0293 21.3125C32.3118 20.7337 32.7038 20.2826 33.2051 19.959C33.7109 19.6309 34.2578 19.4668 34.8457 19.4668C35.8073 19.4668 36.5547 19.7835 37.0879 20.417C37.6211 21.0505 37.8877 21.9574 37.8877 23.1377V23.6641H32.877C32.8952 24.3932 33.1071 24.9834 33.5127 25.4346C33.9229 25.8812 34.4424 26.1045 35.0713 26.1045C35.5179 26.1045 35.8962 26.0133 36.2061 25.8311C36.516 25.6488 36.7871 25.4072 37.0195 25.1064L37.792 25.708C37.1722 26.6605 36.2425 27.1367 35.0029 27.1367ZM34.8457 20.5059C34.3353 20.5059 33.9069 20.6927 33.5605 21.0664C33.2142 21.4355 33 21.9551 32.918 22.625H36.623V22.5293C36.5866 21.8867 36.4134 21.39 36.1035 21.0391C35.7936 20.6836 35.3743 20.5059 34.8457 20.5059ZM17.7354 37.4082H18.6855C19.2826 37.3991 19.752 37.2419 20.0938 36.9365C20.4355 36.6312 20.6064 36.2188 20.6064 35.6992C20.6064 34.5326 20.0254 33.9492 18.8633 33.9492C18.3164 33.9492 17.8789 34.1064 17.5508 34.4209C17.2272 34.7308 17.0654 35.1432 17.0654 35.6582H15.8008C15.8008 34.8698 16.0879 34.2158 16.6621 33.6963C17.2409 33.1722 17.9746 32.9102 18.8633 32.9102C19.8021 32.9102 20.5381 33.1585 21.0713 33.6553C21.6045 34.152 21.8711 34.8424 21.8711 35.7266C21.8711 36.1595 21.7298 36.5788 21.4473 36.9844C21.1693 37.39 20.7887 37.693 20.3057 37.8936C20.8525 38.0667 21.2741 38.3538 21.5703 38.7549C21.8711 39.1559 22.0215 39.6458 22.0215 40.2246C22.0215 41.1178 21.7298 41.8265 21.1465 42.3506C20.5632 42.8747 19.8044 43.1367 18.8701 43.1367C17.9359 43.1367 17.1748 42.8838 16.5869 42.3779C16.0036 41.8721 15.7119 41.2044 15.7119 40.375H16.9834C16.9834 40.8991 17.1543 41.3184 17.4961 41.6328C17.8379 41.9473 18.2959 42.1045 18.8701 42.1045C19.4808 42.1045 19.9479 41.945 20.2715 41.626C20.5951 41.307 20.7568 40.849 20.7568 40.252C20.7568 39.6732 20.5791 39.2288 20.2236 38.9189C19.8682 38.609 19.3555 38.4495 18.6855 38.4404H17.7354V37.4082Z" fill="black"/>
</svg>
